<mxfile host="app.diagrams.net" modified="2023-01-30T11:13:47.360Z" agent="5.0 (Windows)" etag="fXDKZLs-EpbnMSEQHya0" version="20.8.13" type="github">
  <diagram name="Sivu-1" id="yN03_GWLSGMEfT3TjBCk">
    <mxGraphModel dx="1434" dy="739" grid="1" gridSize="10" guides="1" tooltips="1" connect="1" arrows="1" fold="1" page="1" pageScale="1" pageWidth="827" pageHeight="1169" math="1" shadow="0">
      <root>
        <mxCell id="0" />
        <mxCell id="1" parent="0" />
        <mxCell id="dgrJLuENhJAnlbSne9Uu-13" style="edgeStyle=orthogonalEdgeStyle;rounded=0;orthogonalLoop=1;jettySize=auto;html=1;exitX=1;exitY=0.5;exitDx=0;exitDy=0;entryX=1;entryY=0.5;entryDx=0;entryDy=0;entryPerimeter=0;" edge="1" parent="1" source="dgrJLuENhJAnlbSne9Uu-1" target="dgrJLuENhJAnlbSne9Uu-1">
          <mxGeometry relative="1" as="geometry" />
        </mxCell>
        <mxCell id="dgrJLuENhJAnlbSne9Uu-19" style="edgeStyle=orthogonalEdgeStyle;rounded=0;orthogonalLoop=1;jettySize=auto;html=1;exitX=1;exitY=0;exitDx=0;exitDy=0;entryX=0;entryY=0;entryDx=0;entryDy=0;fontSize=36;" edge="1" parent="1" source="dgrJLuENhJAnlbSne9Uu-1" target="dgrJLuENhJAnlbSne9Uu-2">
          <mxGeometry relative="1" as="geometry" />
        </mxCell>
        <mxCell id="dgrJLuENhJAnlbSne9Uu-1" value="" style="ellipse;whiteSpace=wrap;html=1;aspect=fixed;" vertex="1" parent="1">
          <mxGeometry x="120" y="320" width="80" height="80" as="geometry" />
        </mxCell>
        <mxCell id="dgrJLuENhJAnlbSne9Uu-20" style="edgeStyle=orthogonalEdgeStyle;rounded=0;orthogonalLoop=1;jettySize=auto;html=1;exitX=0;exitY=1;exitDx=0;exitDy=0;entryX=1;entryY=1;entryDx=0;entryDy=0;fontSize=36;" edge="1" parent="1" source="dgrJLuENhJAnlbSne9Uu-2" target="dgrJLuENhJAnlbSne9Uu-1">
          <mxGeometry relative="1" as="geometry" />
        </mxCell>
        <mxCell id="dgrJLuENhJAnlbSne9Uu-21" style="edgeStyle=orthogonalEdgeStyle;rounded=0;orthogonalLoop=1;jettySize=auto;html=1;exitX=1;exitY=0;exitDx=0;exitDy=0;fontSize=36;" edge="1" parent="1" source="dgrJLuENhJAnlbSne9Uu-2">
          <mxGeometry relative="1" as="geometry">
            <mxPoint x="350" y="332" as="targetPoint" />
          </mxGeometry>
        </mxCell>
        <mxCell id="dgrJLuENhJAnlbSne9Uu-2" value="" style="ellipse;whiteSpace=wrap;html=1;aspect=fixed;" vertex="1" parent="1">
          <mxGeometry x="240" y="320" width="80" height="80" as="geometry" />
        </mxCell>
        <mxCell id="dgrJLuENhJAnlbSne9Uu-29" style="edgeStyle=orthogonalEdgeStyle;rounded=0;orthogonalLoop=1;jettySize=auto;html=1;exitX=0.5;exitY=1;exitDx=0;exitDy=0;entryX=0.5;entryY=0;entryDx=0;entryDy=0;fontSize=36;" edge="1" parent="1" source="dgrJLuENhJAnlbSne9Uu-4" target="dgrJLuENhJAnlbSne9Uu-10">
          <mxGeometry relative="1" as="geometry" />
        </mxCell>
        <mxCell id="dgrJLuENhJAnlbSne9Uu-31" style="edgeStyle=orthogonalEdgeStyle;rounded=0;orthogonalLoop=1;jettySize=auto;html=1;exitX=1;exitY=0.5;exitDx=0;exitDy=0;entryX=0;entryY=0.5;entryDx=0;entryDy=0;fontSize=36;" edge="1" parent="1" source="dgrJLuENhJAnlbSne9Uu-4" target="dgrJLuENhJAnlbSne9Uu-5">
          <mxGeometry relative="1" as="geometry" />
        </mxCell>
        <mxCell id="dgrJLuENhJAnlbSne9Uu-4" value="" style="ellipse;whiteSpace=wrap;html=1;aspect=fixed;" vertex="1" parent="1">
          <mxGeometry x="240" y="600" width="80" height="80" as="geometry" />
        </mxCell>
        <mxCell id="dgrJLuENhJAnlbSne9Uu-30" style="edgeStyle=orthogonalEdgeStyle;rounded=0;orthogonalLoop=1;jettySize=auto;html=1;exitX=0.5;exitY=1;exitDx=0;exitDy=0;entryX=0.5;entryY=0;entryDx=0;entryDy=0;fontSize=36;" edge="1" parent="1" source="dgrJLuENhJAnlbSne9Uu-5" target="dgrJLuENhJAnlbSne9Uu-9">
          <mxGeometry relative="1" as="geometry" />
        </mxCell>
        <mxCell id="dgrJLuENhJAnlbSne9Uu-5" value="" style="ellipse;whiteSpace=wrap;html=1;aspect=fixed;" vertex="1" parent="1">
          <mxGeometry x="440" y="600" width="80" height="80" as="geometry" />
        </mxCell>
        <mxCell id="dgrJLuENhJAnlbSne9Uu-11" style="edgeStyle=orthogonalEdgeStyle;rounded=0;orthogonalLoop=1;jettySize=auto;html=1;exitX=0.5;exitY=1;exitDx=0;exitDy=0;entryX=0.5;entryY=0;entryDx=0;entryDy=0;" edge="1" parent="1" source="dgrJLuENhJAnlbSne9Uu-7" target="dgrJLuENhJAnlbSne9Uu-1">
          <mxGeometry relative="1" as="geometry" />
        </mxCell>
        <mxCell id="dgrJLuENhJAnlbSne9Uu-7" value="" style="whiteSpace=wrap;html=1;aspect=fixed;" vertex="1" parent="1">
          <mxGeometry x="130" y="210" width="60" height="60" as="geometry" />
        </mxCell>
        <mxCell id="dgrJLuENhJAnlbSne9Uu-12" style="edgeStyle=orthogonalEdgeStyle;rounded=0;orthogonalLoop=1;jettySize=auto;html=1;exitX=0.5;exitY=1;exitDx=0;exitDy=0;entryX=0.5;entryY=0;entryDx=0;entryDy=0;" edge="1" parent="1" source="dgrJLuENhJAnlbSne9Uu-8" target="dgrJLuENhJAnlbSne9Uu-2">
          <mxGeometry relative="1" as="geometry" />
        </mxCell>
        <mxCell id="dgrJLuENhJAnlbSne9Uu-8" value="" style="whiteSpace=wrap;html=1;aspect=fixed;" vertex="1" parent="1">
          <mxGeometry x="250" y="210" width="60" height="60" as="geometry" />
        </mxCell>
        <mxCell id="dgrJLuENhJAnlbSne9Uu-9" value="" style="whiteSpace=wrap;html=1;aspect=fixed;" vertex="1" parent="1">
          <mxGeometry x="450" y="730" width="60" height="60" as="geometry" />
        </mxCell>
        <mxCell id="dgrJLuENhJAnlbSne9Uu-10" value="" style="whiteSpace=wrap;html=1;aspect=fixed;" vertex="1" parent="1">
          <mxGeometry x="250" y="730" width="60" height="60" as="geometry" />
        </mxCell>
        <mxCell id="dgrJLuENhJAnlbSne9Uu-18" style="edgeStyle=orthogonalEdgeStyle;rounded=0;orthogonalLoop=1;jettySize=auto;html=1;exitX=0.5;exitY=1;exitDx=0;exitDy=0;entryX=0.5;entryY=0;entryDx=0;entryDy=0;fontSize=36;" edge="1" parent="1" source="dgrJLuENhJAnlbSne9Uu-15" target="dgrJLuENhJAnlbSne9Uu-17">
          <mxGeometry relative="1" as="geometry" />
        </mxCell>
        <mxCell id="dgrJLuENhJAnlbSne9Uu-15" value="" style="whiteSpace=wrap;html=1;aspect=fixed;" vertex="1" parent="1">
          <mxGeometry x="410" y="210" width="60" height="60" as="geometry" />
        </mxCell>
        <mxCell id="dgrJLuENhJAnlbSne9Uu-16" value="&lt;font style=&quot;font-size: 36px;&quot;&gt;...&lt;/font&gt;" style="text;html=1;strokeColor=none;fillColor=none;align=center;verticalAlign=middle;whiteSpace=wrap;rounded=0;" vertex="1" parent="1">
          <mxGeometry x="330" y="220" width="60" height="30" as="geometry" />
        </mxCell>
        <mxCell id="dgrJLuENhJAnlbSne9Uu-22" style="edgeStyle=orthogonalEdgeStyle;rounded=0;orthogonalLoop=1;jettySize=auto;html=1;exitX=0;exitY=1;exitDx=0;exitDy=0;fontSize=36;" edge="1" parent="1" source="dgrJLuENhJAnlbSne9Uu-17">
          <mxGeometry relative="1" as="geometry">
            <mxPoint x="370" y="388" as="targetPoint" />
          </mxGeometry>
        </mxCell>
        <mxCell id="dgrJLuENhJAnlbSne9Uu-17" value="" style="ellipse;whiteSpace=wrap;html=1;aspect=fixed;" vertex="1" parent="1">
          <mxGeometry x="400" y="320" width="80" height="80" as="geometry" />
        </mxCell>
        <mxCell id="dgrJLuENhJAnlbSne9Uu-24" value="" style="endArrow=classic;html=1;rounded=0;fontSize=36;entryX=1;entryY=1;entryDx=0;entryDy=0;" edge="1" parent="1" target="dgrJLuENhJAnlbSne9Uu-2">
          <mxGeometry width="50" height="50" relative="1" as="geometry">
            <mxPoint x="350" y="388" as="sourcePoint" />
            <mxPoint x="520" y="290" as="targetPoint" />
          </mxGeometry>
        </mxCell>
        <mxCell id="dgrJLuENhJAnlbSne9Uu-25" value="" style="endArrow=classic;html=1;rounded=0;fontSize=36;entryX=0;entryY=0;entryDx=0;entryDy=0;" edge="1" parent="1" target="dgrJLuENhJAnlbSne9Uu-17">
          <mxGeometry width="50" height="50" relative="1" as="geometry">
            <mxPoint x="370" y="332" as="sourcePoint" />
            <mxPoint x="520" y="290" as="targetPoint" />
          </mxGeometry>
        </mxCell>
        <mxCell id="dgrJLuENhJAnlbSne9Uu-27" value="" style="triangle;whiteSpace=wrap;html=1;fontSize=36;rotation=90;" vertex="1" parent="1">
          <mxGeometry x="275" y="475" width="70" height="80" as="geometry" />
        </mxCell>
        <mxCell id="dgrJLuENhJAnlbSne9Uu-33" value="" style="curved=1;endArrow=classic;html=1;rounded=0;fontSize=36;exitX=1;exitY=0.5;exitDx=0;exitDy=0;entryX=0;entryY=0.5;entryDx=0;entryDy=0;" edge="1" parent="1" source="dgrJLuENhJAnlbSne9Uu-27" target="dgrJLuENhJAnlbSne9Uu-5">
          <mxGeometry width="50" height="50" relative="1" as="geometry">
            <mxPoint x="310" y="550" as="sourcePoint" />
            <mxPoint x="610" y="500" as="targetPoint" />
            <Array as="points">
              <mxPoint x="360" y="610" />
            </Array>
          </mxGeometry>
        </mxCell>
        <mxCell id="dgrJLuENhJAnlbSne9Uu-35" value="" style="endArrow=classic;html=1;rounded=0;fontSize=36;exitX=0.5;exitY=1;exitDx=0;exitDy=0;entryX=0;entryY=0.65;entryDx=0;entryDy=0;entryPerimeter=0;" edge="1" parent="1" source="dgrJLuENhJAnlbSne9Uu-1" target="dgrJLuENhJAnlbSne9Uu-27">
          <mxGeometry width="50" height="50" relative="1" as="geometry">
            <mxPoint x="390" y="550" as="sourcePoint" />
            <mxPoint x="440" y="500" as="targetPoint" />
          </mxGeometry>
        </mxCell>
        <mxCell id="dgrJLuENhJAnlbSne9Uu-36" value="" style="endArrow=classic;html=1;rounded=0;fontSize=36;exitX=0.5;exitY=1;exitDx=0;exitDy=0;entryX=0;entryY=0.5;entryDx=0;entryDy=0;" edge="1" parent="1" source="dgrJLuENhJAnlbSne9Uu-2" target="dgrJLuENhJAnlbSne9Uu-27">
          <mxGeometry width="50" height="50" relative="1" as="geometry">
            <mxPoint x="390" y="550" as="sourcePoint" />
            <mxPoint x="440" y="500" as="targetPoint" />
          </mxGeometry>
        </mxCell>
        <mxCell id="dgrJLuENhJAnlbSne9Uu-37" value="" style="endArrow=classic;html=1;rounded=0;fontSize=36;exitX=0.5;exitY=1;exitDx=0;exitDy=0;entryX=0;entryY=0.25;entryDx=0;entryDy=0;" edge="1" parent="1" source="dgrJLuENhJAnlbSne9Uu-17" target="dgrJLuENhJAnlbSne9Uu-27">
          <mxGeometry width="50" height="50" relative="1" as="geometry">
            <mxPoint x="390" y="550" as="sourcePoint" />
            <mxPoint x="440" y="500" as="targetPoint" />
          </mxGeometry>
        </mxCell>
        <mxCell id="dgrJLuENhJAnlbSne9Uu-39" value="$$\Sigma$$" style="text;html=1;strokeColor=none;fillColor=none;align=center;verticalAlign=middle;whiteSpace=wrap;rounded=0;fontSize=36;" vertex="1" parent="1">
          <mxGeometry x="280" y="490" width="60" height="30" as="geometry" />
        </mxCell>
      </root>
    </mxGraphModel>
  </diagram>
</mxfile>
